<svg preserveAspectRatio="none" overflow="visible" style="display: block;" width="144" height="20.0781" viewBox="0 0 144 20.0781" fill="none" xmlns="http://www.w3.org/2000/svg">
<g id="Group">
<path id="Vector" d="M18.8272 4.92187L15.5974 16.4062L12.2888 4.92187H9.53173L6.30197 16.4062L3.07221 4.92187H0L4.49016 19.6094H7.79868L10.9497 9.14063L14.0219 19.6094H17.4092L21.8993 4.92187H18.8272Z" fill="black"/>
<path id="Vector_2" d="M31.9824 5.54687C30.9583 4.92187 29.7768 4.60937 28.4377 4.60937C27.0197 4.60937 25.7594 4.92187 24.7353 5.54687C23.7112 6.17187 22.9234 7.10937 22.2932 8.20313C21.7418 9.375 21.4266 10.7031 21.4266 12.2656C21.4266 13.8281 21.7418 15.1562 22.2932 16.3281C22.8446 17.5 23.6325 18.3594 24.7353 18.9844C25.7594 19.6094 27.0197 19.9219 28.5164 19.9219C30.1707 19.9219 31.5098 19.5313 32.6915 18.6719C33.8731 17.8125 34.582 16.7188 34.9759 15.3906L31.9037 15.2344C31.6674 15.9375 31.2735 16.4844 30.7221 16.875C30.1707 17.2656 29.3828 17.5 28.5164 17.5C27.3349 17.5 26.3895 17.1094 25.6804 16.4062C24.9715 15.7031 24.5776 14.6094 24.4989 13.2031H35.1334V12.4219C35.1334 10.7813 34.8184 9.375 34.267 8.20313C33.7156 7.03124 32.9278 6.17187 31.9037 5.54687H31.9824ZM24.5776 10.9375C24.7353 9.6875 25.129 8.75 25.8381 8.04687C26.547 7.42187 27.4136 7.03126 28.4377 7.03126C29.4618 7.03126 30.3282 7.34376 30.9583 7.96876C31.5887 8.59376 31.9824 9.53126 32.0612 10.8594H24.4989L24.5776 10.9375Z" fill="black"/>
<path id="Vector_3" d="M47.5799 5.54687C46.6346 4.92187 45.5317 4.60937 44.2712 4.60937C43.2473 4.60937 42.3807 4.84376 41.5929 5.3125C40.8052 5.78126 40.2538 6.32813 39.8599 7.03124V0H36.8666V19.6094H39.6237V17.4219C40.0963 18.2031 40.7265 18.8281 41.5141 19.2969C42.302 19.7656 43.2473 20 44.2712 20C45.5317 20 46.6346 19.6876 47.5799 19.0626C48.5252 18.4375 49.2341 17.5781 49.7855 16.4062C50.337 15.2344 50.5732 13.9063 50.5732 12.3438C50.5732 10.7813 50.337 9.45313 49.7855 8.28124C49.2341 7.10937 48.5252 6.25 47.5799 5.625V5.54687ZM46.4771 16.0937C45.8467 17.0312 44.9016 17.5 43.7987 17.5C43.0109 17.5 42.302 17.2656 41.6718 16.875C41.0415 16.4844 40.6477 15.8594 40.3326 15.0781C40.0174 14.2969 39.8599 13.3594 39.8599 12.3438C39.8599 11.3281 40.0174 10.3125 40.3326 9.53126C40.6477 8.75 41.1204 8.20313 41.6718 7.73437C42.302 7.34376 43.0109 7.10937 43.7987 7.10937C44.9016 7.10937 45.768 7.57813 46.4771 8.51563C47.1072 9.45313 47.5011 10.7031 47.5011 12.2656C47.5011 13.8281 47.186 15.1562 46.4771 16.0156V16.0937Z" fill="black"/>
<path id="Vector_4" d="M62.6258 11.7969C61.6804 11.4063 60.4201 11.0938 58.8446 10.8594C58.1357 10.7813 57.5843 10.625 57.1904 10.4688C56.7965 10.3125 56.4815 10.1562 56.3238 9.92187C56.1663 9.6875 56.0875 9.375 56.0875 8.98437C56.0875 8.51563 56.3238 8.125 56.7177 7.8125C57.1116 7.5 57.663 7.34376 58.4507 7.34376C58.9234 7.34376 59.396 7.42187 59.7112 7.65626C60.0262 7.8125 60.3414 8.125 60.5776 8.4375C60.814 8.75 60.9715 9.21876 60.9715 9.6875L65.1466 9.53126C64.9891 8.59376 64.6739 7.65626 64.1225 6.95313C63.5711 6.17187 62.8622 5.54687 61.9169 5.15626C60.9715 4.6875 59.7899 4.53126 58.3719 4.53126C56.1663 4.53126 54.512 5 53.4092 5.85937C52.3064 6.71876 51.755 7.89063 51.755 9.29687C51.755 10.1563 51.9125 10.8594 52.3064 11.4844C52.7003 12.1094 53.3305 12.5781 54.1969 12.8906C55.0635 13.2812 56.3238 13.5938 57.8993 13.8281C58.7659 13.9844 59.396 14.1406 59.8687 14.2969C60.3414 14.4531 60.5776 14.6094 60.7353 14.8437C60.8928 15.0781 60.9715 15.3125 60.9715 15.625C60.9715 16.0938 60.7353 16.4844 60.3414 16.7188C59.9474 16.9531 59.3173 17.1094 58.6084 17.1094C57.663 17.1094 57.0329 16.9531 56.5602 16.5625C56.0875 16.1719 55.7724 15.625 55.6936 14.9219L51.4398 15.0781C51.4398 16.0156 51.8337 16.9531 52.3851 17.6563C52.9365 18.4375 53.7242 18.9844 54.7483 19.4531C55.7724 19.9219 57.1116 20.0781 58.6084 20.0781C59.9474 20.0781 61.129 19.9219 62.1531 19.5313C63.1772 19.1406 63.8863 18.6719 64.5164 18.0469C65.0679 17.4219 65.3828 16.5625 65.3828 15.625C65.3828 14.7656 65.1466 14.0625 64.7527 13.4375C64.3589 12.8125 63.6499 12.3437 62.7045 11.9531L62.6258 11.7969Z" fill="black"/>
<path id="Vector_5" d="M71.8425 1.32813H67.6674V4.84374H65.3041V7.96874H67.6674V15.2344C67.6674 16.7969 68.0614 17.8906 68.7703 18.5937C69.4792 19.2969 70.6607 19.6874 72.1575 19.6874H75.7812V16.5625H73.6542C73.0241 16.5625 72.5514 16.4062 72.2362 16.1719C71.9213 15.9375 71.7638 15.3906 71.7638 14.6875V7.89063H75.7024V4.76563H71.7638V1.32813H71.8425Z" fill="black"/>
<path id="Vector_6" d="M90.0394 16.5625C90.0394 16.5625 89.8031 16.1719 89.8031 15.7031V10.625C89.8031 8.59376 89.2517 7.03124 88.1489 6.01563C87.0459 5 85.3129 4.45313 83.1072 4.45313C81.1378 4.45313 79.5623 4.84376 78.3807 5.70313C77.1992 6.5625 76.4113 7.73437 76.1751 9.375L80.3501 9.53126C80.5076 8.82813 80.7441 8.28124 81.2166 7.96874C81.6892 7.57813 82.3196 7.42187 83.1072 7.42187C83.8951 7.42187 84.5252 7.65624 84.9979 8.125C85.4704 8.59374 85.6281 9.375 85.6281 10.3125L80.8228 11.25C79.1686 11.5625 77.9868 12.1094 77.1204 12.8125C76.3326 13.5156 75.8599 14.5313 75.8599 15.8594C75.8599 17.1875 76.3326 18.125 77.3566 18.8281C78.3807 19.5313 79.5623 19.9219 81.1378 19.9219C82.1619 19.9219 83.0285 19.7656 83.7374 19.5313C84.5252 19.2187 85.0766 18.9063 85.5493 18.3594C85.943 17.9687 86.1007 17.5 86.337 17.0313C86.337 17.5781 86.4157 18.125 86.6521 18.4375C86.9671 18.9063 87.361 19.2969 87.9125 19.4531C88.4639 19.6094 89.0153 19.7656 89.5667 19.7656C89.8819 19.7656 90.1181 19.7656 90.4333 19.7656C90.7483 19.7656 90.906 19.7656 91.0635 19.6876V16.875H90.6695C90.6695 16.875 90.1969 16.875 90.0394 16.6406V16.5625ZM85.7068 13.75C85.7068 14.4531 85.5493 15.0781 85.2341 15.5469C84.919 16.0938 84.5252 16.4844 83.9738 16.7188C83.4224 16.9531 82.871 17.1094 82.1619 17.1094C81.5317 17.1094 81.0591 16.9531 80.7441 16.7188C80.4289 16.4063 80.2714 16.0938 80.2714 15.5469C80.2714 15 80.4289 14.6875 80.8228 14.375C81.1378 14.0625 81.6892 13.8281 82.3196 13.75L85.7068 13.0469V13.75Z" fill="black"/>
<path id="Vector_7" d="M98.3895 7.65626C99.1772 7.65626 99.8863 7.89063 100.359 8.35937C100.91 8.82813 101.225 9.53126 101.383 10.4688L105.716 10.3125C105.558 9.0625 105.164 8.04687 104.534 7.1875C103.904 6.32813 103.037 5.625 102.013 5.23437C100.989 4.84376 99.8075 4.53126 98.4683 4.53126C96.9715 4.53126 95.6324 4.84376 94.4507 5.46876C93.3479 6.09376 92.4027 7.03124 91.7724 8.20313C91.1422 9.375 90.8272 10.7031 90.8272 12.2656C90.8272 13.8281 91.1422 15.2344 91.7724 16.3281C92.4027 17.5 93.2691 18.3594 94.4507 19.0626C95.5537 19.6876 96.8928 20 98.4683 20C99.8075 20 101.068 19.7656 102.092 19.2969C103.116 18.8281 103.982 18.125 104.613 17.1875C105.243 16.3281 105.637 15.2344 105.794 13.9844L101.462 13.8281C101.383 14.8438 100.989 15.5469 100.516 16.0938C99.965 16.5625 99.3349 16.7969 98.547 16.7969C97.5229 16.7969 96.7353 16.4063 96.1051 15.625C95.5537 14.8438 95.2385 13.6719 95.2385 12.2656C95.2385 10.8594 95.5537 9.6875 96.1051 8.90626C96.6565 8.125 97.5229 7.73437 98.547 7.73437L98.3895 7.65626Z" fill="black"/>
<path id="Vector_8" d="M115.562 10.9375L121.392 4.84376H116.35L110.836 10.9375V0H106.661V19.6094H110.836V15.4688L112.884 13.2813L116.98 19.6094H121.549L115.562 10.9375Z" fill="black"/>
<path id="Vector_9" d="M142.347 1.53846H135.705C134.791 1.53846 134.051 2.28007 134.051 3.19493C134.051 4.10976 134.791 4.85137 135.705 4.85137H142.347C143.26 4.85137 144 4.10976 144 3.19493C144 2.28007 143.26 1.53846 142.347 1.53846Z" fill="#349BF6"/>
<path id="Vector_10" d="M142.347 6.50783H129.024C128.11 6.50783 127.37 7.24946 127.37 8.1643C127.37 9.07913 128.11 9.82076 129.024 9.82076H142.347C143.26 9.82076 144 9.07913 144 8.1643C144 7.24946 143.26 6.50783 142.347 6.50783Z" fill="#FF9F00"/>
<path id="Vector_11" d="M142.274 11.4052H131.493C130.58 11.4052 129.839 12.1468 129.839 13.0617C129.839 13.9765 130.58 14.7181 131.493 14.7181H142.274C143.187 14.7181 143.927 13.9765 143.927 13.0617C143.927 12.1468 143.187 11.4052 142.274 11.4052Z" fill="#53B509"/>
<path id="Vector_12" d="M142.347 16.3746H129.024C128.11 16.3746 127.37 17.1162 127.37 18.031C127.37 18.9459 128.11 19.6874 129.024 19.6874H142.347C143.26 19.6874 144 18.9459 144 18.031C144 17.1162 143.26 16.3746 142.347 16.3746Z" fill="#D4167F"/>
</g>
</svg>
